<svg width="222" height="44" viewBox="0 0 222 44" fill="none" xmlns="http://www.w3.org/2000/svg">
<g clip-path="url(#clip0_900_588)">
<path d="M14.6667 22H7.33333C6.32081 22 5.5 22.8208 5.5 23.8333V34.8333C5.5 35.8459 6.32081 36.6667 7.33333 36.6667H14.6667C15.6792 36.6667 16.5 35.8459 16.5 34.8333V23.8333C16.5 22.8208 15.6792 22 14.6667 22Z" stroke="url(#paint0_linear_900_588)" stroke-width="2.75" stroke-linecap="round" stroke-linejoin="round"/>
<path d="M25.6667 14.6666H18.3333C17.3208 14.6666 16.5 15.4874 16.5 16.5V34.8333C16.5 35.8458 17.3208 36.6666 18.3333 36.6666H25.6667C26.6792 36.6666 27.5 35.8458 27.5 34.8333V16.5C27.5 15.4874 26.6792 14.6666 25.6667 14.6666Z" stroke="url(#paint1_linear_900_588)" stroke-width="2.75" stroke-linecap="round" stroke-linejoin="round"/>
<path d="M36.6667 7.33337H29.3333C28.3208 7.33337 27.5 8.15419 27.5 9.16671V34.8334C27.5 35.8459 28.3208 36.6667 29.3333 36.6667H36.6667C37.6792 36.6667 38.5 35.8459 38.5 34.8334V9.16671C38.5 8.15419 37.6792 7.33337 36.6667 7.33337Z" stroke="url(#paint2_linear_900_588)" stroke-width="2.75" stroke-linecap="round" stroke-linejoin="round"/>
<path d="M7.33331 36.6666H33" stroke="url(#paint3_linear_900_588)" stroke-width="2.75" stroke-linecap="round" stroke-linejoin="round"/>
</g>
<path d="M57.0078 26.9189C57.0078 26.5381 56.9492 26.1963 56.832 25.8936C56.7246 25.5811 56.5195 25.2979 56.2168 25.0439C55.9141 24.7803 55.4893 24.5215 54.9424 24.2676C54.3955 24.0137 53.6875 23.75 52.8184 23.4766C51.8516 23.1641 50.9336 22.8125 50.0645 22.4219C49.2051 22.0312 48.4434 21.5771 47.7793 21.0596C47.125 20.5322 46.6074 19.9219 46.2266 19.2285C45.8555 18.5352 45.6699 17.7295 45.6699 16.8115C45.6699 15.9229 45.8652 15.1172 46.2559 14.3945C46.6465 13.6621 47.1934 13.0371 47.8965 12.5195C48.5996 11.9922 49.4297 11.5869 50.3867 11.3037C51.3535 11.0205 52.4131 10.8789 53.5654 10.8789C55.1377 10.8789 56.5098 11.1621 57.6816 11.7285C58.8535 12.2949 59.7617 13.0713 60.4062 14.0576C61.0605 15.0439 61.3877 16.1719 61.3877 17.4414H57.0225C57.0225 16.8164 56.8906 16.2695 56.627 15.8008C56.373 15.3223 55.9824 14.9463 55.4551 14.6729C54.9375 14.3994 54.2832 14.2627 53.4922 14.2627C52.7305 14.2627 52.0957 14.3799 51.5879 14.6143C51.0801 14.8389 50.6992 15.1465 50.4453 15.5371C50.1914 15.918 50.0645 16.3477 50.0645 16.8262C50.0645 17.1875 50.1523 17.5146 50.3281 17.8076C50.5137 18.1006 50.7871 18.374 51.1484 18.6279C51.5098 18.8818 51.9541 19.1211 52.4814 19.3457C53.0088 19.5703 53.6191 19.79 54.3125 20.0049C55.4746 20.3564 56.4951 20.752 57.374 21.1914C58.2627 21.6309 59.0049 22.124 59.6006 22.6709C60.1963 23.2178 60.6455 23.8379 60.9482 24.5312C61.251 25.2246 61.4023 26.0107 61.4023 26.8896C61.4023 27.8174 61.2217 28.6475 60.8604 29.3799C60.499 30.1123 59.9766 30.7324 59.293 31.2402C58.6094 31.748 57.7939 32.1338 56.8467 32.3975C55.8994 32.6611 54.8398 32.793 53.668 32.793C52.6133 32.793 51.5732 32.6562 50.5479 32.3828C49.5225 32.0996 48.5898 31.6748 47.75 31.1084C46.9199 30.542 46.2559 29.8193 45.7578 28.9404C45.2598 28.0615 45.0107 27.0215 45.0107 25.8203H49.4199C49.4199 26.4844 49.5225 27.0459 49.7275 27.5049C49.9326 27.9639 50.2207 28.335 50.5918 28.6182C50.9727 28.9014 51.4219 29.1064 51.9395 29.2334C52.4668 29.3604 53.043 29.4238 53.668 29.4238C54.4297 29.4238 55.0547 29.3164 55.543 29.1016C56.041 28.8867 56.4072 28.5889 56.6416 28.208C56.8857 27.8271 57.0078 27.3975 57.0078 26.9189ZM68.3457 9.98535V32.5H64.127V9.98535H68.3457ZM78.3359 16.6504L71.4512 24.502L67.7598 28.2373L66.2217 25.1904L69.1514 21.4697L73.2676 16.6504H78.3359ZM73.9561 32.5L69.2686 25.1758L72.1836 22.627L78.8193 32.5H73.9561ZM84.6055 16.6504V32.5H80.3721V16.6504H84.6055ZM80.1084 12.5195C80.1084 11.9043 80.3232 11.3965 80.7529 10.9961C81.1826 10.5957 81.7588 10.3955 82.4814 10.3955C83.1943 10.3955 83.7656 10.5957 84.1953 10.9961C84.6348 11.3965 84.8545 11.9043 84.8545 12.5195C84.8545 13.1348 84.6348 13.6426 84.1953 14.043C83.7656 14.4434 83.1943 14.6436 82.4814 14.6436C81.7588 14.6436 81.1826 14.4434 80.7529 14.043C80.3232 13.6426 80.1084 13.1348 80.1084 12.5195ZM92.5449 10V32.5H88.3115V10H92.5449ZM100.484 10V32.5H96.251V10H100.484ZM109.376 29.1162L113.624 11.1719H115.997L116.539 14.1602L112.013 32.5H109.464L109.376 29.1162ZM107.193 11.1719L110.709 29.1162L110.416 32.5H107.574L102.843 11.1719H107.193ZM120.274 29.043L123.746 11.1719H128.097L123.38 32.5H120.538L120.274 29.043ZM117.33 11.1719L121.607 29.1895L121.49 32.5H118.941L114.386 14.1455L114.972 11.1719H117.33ZM134.674 16.6504V32.5H130.44V16.6504H134.674ZM130.177 12.5195C130.177 11.9043 130.392 11.3965 130.821 10.9961C131.251 10.5957 131.827 10.3955 132.55 10.3955C133.263 10.3955 133.834 10.5957 134.264 10.9961C134.703 11.3965 134.923 11.9043 134.923 12.5195C134.923 13.1348 134.703 13.6426 134.264 14.043C133.834 14.4434 133.263 14.6436 132.55 14.6436C131.827 14.6436 131.251 14.4434 130.821 14.043C130.392 13.6426 130.177 13.1348 130.177 12.5195ZM142.613 10V32.5H138.38V10H142.613ZM150.553 10V32.5H146.319V10H150.553ZM170.123 23.1396H164.645L164.615 20.1221H169.215C170.025 20.1221 170.689 20.0195 171.207 19.8145C171.725 19.5996 172.11 19.292 172.364 18.8916C172.628 18.4814 172.76 17.9834 172.76 17.3975C172.76 16.7334 172.633 16.1963 172.379 15.7861C172.135 15.376 171.749 15.0781 171.222 14.8926C170.704 14.707 170.035 14.6143 169.215 14.6143H166.168V32.5H161.773V11.1719H169.215C170.455 11.1719 171.563 11.2891 172.54 11.5234C173.526 11.7578 174.361 12.1143 175.045 12.5928C175.729 13.0713 176.251 13.6768 176.612 14.4092C176.974 15.1318 177.154 15.9912 177.154 16.9873C177.154 17.8662 176.954 18.6768 176.554 19.4189C176.163 20.1611 175.543 20.7666 174.693 21.2354C173.854 21.7041 172.755 21.9629 171.397 22.0117L170.123 23.1396ZM169.933 32.5H163.443L165.157 29.0723H169.933C170.704 29.0723 171.334 28.9502 171.822 28.7061C172.311 28.4521 172.672 28.1104 172.906 27.6807C173.141 27.251 173.258 26.7578 173.258 26.2012C173.258 25.5762 173.15 25.0342 172.936 24.5752C172.73 24.1162 172.398 23.7646 171.939 23.5205C171.48 23.2666 170.875 23.1396 170.123 23.1396H165.89L165.919 20.1221H171.192L172.203 21.3086C173.502 21.2891 174.547 21.5186 175.338 21.9971C176.139 22.4658 176.72 23.0762 177.081 23.8281C177.452 24.5801 177.638 25.3857 177.638 26.2451C177.638 27.6123 177.34 28.7646 176.744 29.7021C176.148 30.6299 175.274 31.3281 174.122 31.7969C172.979 32.2656 171.583 32.5 169.933 32.5ZM185.123 10V32.5H180.89V10H185.123ZM187.936 24.7363V24.4287C187.936 23.2666 188.102 22.1973 188.434 21.2207C188.766 20.2344 189.249 19.3799 189.884 18.6572C190.519 17.9346 191.3 17.373 192.228 16.9727C193.155 16.5625 194.22 16.3574 195.421 16.3574C196.622 16.3574 197.691 16.5625 198.629 16.9727C199.566 17.373 200.353 17.9346 200.987 18.6572C201.632 19.3799 202.12 20.2344 202.452 21.2207C202.784 22.1973 202.95 23.2666 202.95 24.4287V24.7363C202.95 25.8887 202.784 26.958 202.452 27.9443C202.12 28.9209 201.632 29.7754 200.987 30.5078C200.353 31.2305 199.571 31.792 198.644 32.1924C197.716 32.5928 196.651 32.793 195.45 32.793C194.249 32.793 193.18 32.5928 192.242 32.1924C191.314 31.792 190.528 31.2305 189.884 30.5078C189.249 29.7754 188.766 28.9209 188.434 27.9443C188.102 26.958 187.936 25.8887 187.936 24.7363ZM192.154 24.4287V24.7363C192.154 25.4004 192.213 26.0205 192.33 26.5967C192.447 27.1729 192.633 27.6807 192.887 28.1201C193.15 28.5498 193.492 28.8867 193.912 29.1309C194.332 29.375 194.845 29.4971 195.45 29.4971C196.036 29.4971 196.539 29.375 196.959 29.1309C197.379 28.8867 197.716 28.5498 197.97 28.1201C198.224 27.6807 198.409 27.1729 198.526 26.5967C198.653 26.0205 198.717 25.4004 198.717 24.7363V24.4287C198.717 23.7842 198.653 23.1787 198.526 22.6123C198.409 22.0361 198.219 21.5283 197.955 21.0889C197.701 20.6396 197.364 20.2881 196.944 20.0342C196.524 19.7803 196.017 19.6533 195.421 19.6533C194.825 19.6533 194.317 19.7803 193.897 20.0342C193.487 20.2881 193.15 20.6396 192.887 21.0889C192.633 21.5283 192.447 22.0361 192.33 22.6123C192.213 23.1787 192.154 23.7842 192.154 24.4287ZM215.577 16.6504H219.4V31.9727C219.4 33.418 219.078 34.6436 218.434 35.6494C217.799 36.665 216.91 37.4316 215.768 37.9492C214.625 38.4766 213.297 38.7402 211.783 38.7402C211.119 38.7402 210.416 38.6523 209.674 38.4766C208.941 38.3008 208.238 38.0273 207.564 37.6562C206.9 37.2852 206.344 36.8164 205.895 36.25L207.755 33.7598C208.243 34.3262 208.81 34.7656 209.454 35.0781C210.099 35.4004 210.812 35.5615 211.593 35.5615C212.354 35.5615 212.999 35.4199 213.526 35.1367C214.054 34.8633 214.459 34.458 214.742 33.9209C215.025 33.3936 215.167 32.7539 215.167 32.002V20.3125L215.577 16.6504ZM204.913 24.7656V24.458C204.913 23.2471 205.06 22.1484 205.353 21.1621C205.655 20.166 206.08 19.3115 206.627 18.5986C207.184 17.8857 207.857 17.334 208.648 16.9434C209.439 16.5527 210.333 16.3574 211.329 16.3574C212.384 16.3574 213.268 16.5527 213.98 16.9434C214.693 17.334 215.279 17.8906 215.738 18.6133C216.197 19.3262 216.554 20.1709 216.808 21.1475C217.071 22.1143 217.276 23.1738 217.423 24.3262V25C217.276 26.1035 217.057 27.1289 216.764 28.0762C216.471 29.0234 216.085 29.8535 215.606 30.5664C215.128 31.2695 214.532 31.8164 213.819 32.207C213.116 32.5977 212.276 32.793 211.3 32.793C210.323 32.793 209.439 32.5928 208.648 32.1924C207.867 31.792 207.198 31.2305 206.642 30.5078C206.085 29.7852 205.655 28.9355 205.353 27.959C205.06 26.9824 204.913 25.918 204.913 24.7656ZM209.132 24.458V24.7656C209.132 25.4199 209.195 26.0303 209.322 26.5967C209.449 27.1631 209.645 27.666 209.908 28.1055C210.182 28.5352 210.519 28.8721 210.919 29.1162C211.329 29.3506 211.812 29.4678 212.369 29.4678C213.141 29.4678 213.771 29.3066 214.259 28.9844C214.747 28.6523 215.113 28.1982 215.357 27.6221C215.602 27.0459 215.743 26.3818 215.782 25.6299V23.7109C215.763 23.0957 215.68 22.5439 215.533 22.0557C215.387 21.5576 215.182 21.1328 214.918 20.7812C214.654 20.4297 214.312 20.1562 213.893 19.9609C213.473 19.7656 212.975 19.668 212.398 19.668C211.842 19.668 211.358 19.7949 210.948 20.0488C210.548 20.293 210.211 20.6299 209.938 21.0596C209.674 21.4893 209.474 21.9971 209.337 22.583C209.2 23.1592 209.132 23.7842 209.132 24.458Z" fill="url(#paint4_linear_900_588)"/>
<defs>
<linearGradient id="paint0_linear_900_588" x1="11" y1="22" x2="5.5" y2="22" gradientUnits="userSpaceOnUse">
<stop stop-color="#16B8F3"/>
<stop offset="1" stop-color="#0EA5E9"/>
</linearGradient>
<linearGradient id="paint1_linear_900_588" x1="22" y1="14.6666" x2="16.5" y2="14.6666" gradientUnits="userSpaceOnUse">
<stop stop-color="#16B8F3"/>
<stop offset="1" stop-color="#0EA5E9"/>
</linearGradient>
<linearGradient id="paint2_linear_900_588" x1="33" y1="7.33337" x2="27.5" y2="7.33337" gradientUnits="userSpaceOnUse">
<stop stop-color="#16B8F3"/>
<stop offset="1" stop-color="#0EA5E9"/>
</linearGradient>
<linearGradient id="paint3_linear_900_588" x1="20.1666" y1="36.6666" x2="7.33331" y2="36.6666" gradientUnits="userSpaceOnUse">
<stop stop-color="#16B8F3"/>
<stop offset="1" stop-color="#0EA5E9"/>
</linearGradient>
<linearGradient id="paint4_linear_900_588" x1="133" y1="4.5" x2="44" y2="4.5" gradientUnits="userSpaceOnUse">
<stop stop-color="#16B8F3"/>
<stop offset="1" stop-color="#0EA5E9"/>
</linearGradient>
<clipPath id="clip0_900_588">
<rect width="44" height="44" fill="white"/>
</clipPath>
</defs>
</svg>
